<?xml version="1.0" standalone="no"?>
<!DOCTYPE svg PUBLIC "-//W3C//DTD SVG 20010904//EN"
 "http://www.w3.org/TR/2001/REC-SVG-20010904/DTD/svg10.dtd">
<svg version="1.0" xmlns="http://www.w3.org/2000/svg"
 width="702.000000pt" height="294.000000pt" viewBox="0 0 702.000000 294.000000"
 preserveAspectRatio="xMidYMid meet">

<g transform="translate(0.000000,294.000000) scale(0.100000,-0.100000)"
fill="#000000" stroke="none">
<path d="M1725 2933 c-440 -19 -843 -135 -1121 -322 -336 -225 -548 -599 -590
-1038 l-7 -73 51 0 c50 0 51 1 56 33 39 236 84 394 151 527 231 459 674 722
1357 806 179 23 576 23 798 1 91 -9 215 -18 275 -21 l110 -5 -90 19 c-267 56
-679 87 -990 73z"/>
<path d="M1805 2829 c-823 -56 -1366 -401 -1565 -997 -34 -101 -67 -257 -76
-360 l-7 -72 147 0 146 0 0 43 c0 65 27 225 50 301 178 573 741 914 1645 996
121 11 618 15 742 6 l68 -5 -90 19 c-293 62 -733 91 -1060 69z"/>
<path d="M1460 2253 c-37 -14 -69 -46 -89 -88 -11 -25 -21 -49 -21 -55 0 -6
73 -10 204 -10 l203 0 32 75 c17 41 31 77 31 80 0 7 -341 5 -360 -2z"/>
<path d="M5358 2163 l-408 -3 -2 -408 -3 -407 -227 405 -227 405 -180 3 -181
2 0 -257 -1 -258 -24 61 c-82 215 -276 387 -495 438 -154 37 -353 12 -489 -59
-204 -107 -313 -257 -417 -573 -70 -216 -145 -312 -304 -390 -69 -34 -82 -37
-160 -37 -72 0 -94 4 -147 29 -76 35 -153 113 -191 193 -23 50 -27 71 -27 153
0 88 3 101 33 162 61 125 178 203 318 215 81 7 185 -24 250 -73 l47 -36 113
113 114 113 -23 24 c-43 46 -160 116 -246 146 -81 29 -95 31 -231 31 -133 0
-152 -2 -227 -28 -109 -37 -212 -106 -295 -196 l-68 -73 30 71 29 71 -207 0
-207 0 -247 -608 c-136 -334 -250 -615 -254 -625 -6 -16 6 -17 201 -15 l207 3
164 405 c91 222 167 406 169 408 1 2 3 -45 3 -105 -1 -401 304 -707 702 -705
219 1 407 87 550 252 l52 60 37 -48 c170 -215 453 -313 721 -250 68 16 184 72
255 123 107 76 193 190 241 318 l23 62 0 -262 1 -263 165 0 165 0 2 406 3 406
226 -403 227 -404 603 0 602 0 121 199 c67 109 126 199 131 199 6 -1 66 -91
133 -202 l124 -201 189 0 c104 0 189 3 189 6 0 3 -99 167 -220 364 -121 197
-220 362 -220 368 0 6 90 160 200 342 110 183 200 334 200 336 0 2 -84 4 -188
4 l-187 0 -109 -185 c-60 -101 -112 -182 -115 -180 -3 2 -55 85 -116 184
l-110 180 -190 -2 c-104 -1 -373 -3 -597 -4z m-1763 -357 c73 -33 155 -112
190 -183 36 -74 46 -192 21 -274 -47 -164 -211 -277 -385 -267 -177 11 -318
138 -351 316 -34 188 97 384 287 432 64 16 176 5 238 -24z m2466 -123 c53 -87
102 -168 108 -180 10 -19 -3 -45 -110 -222 l-120 -201 -200 0 -199 0 0 110 0
110 235 0 235 0 0 160 0 160 -237 2 -238 3 -3 94 c-1 52 -1 100 2 108 4 10 51
13 218 13 l214 0 95 -157z"/>
<path d="M4850 295 l0 -196 113 3 112 3 3 47 3 48 -70 0 -71 0 0 145 0 145
-45 0 -45 0 0 -195z"/>
<path d="M5747 462 c-28 -31 -21 -42 27 -42 43 0 55 12 56 53 0 15 -67 7 -83
-11z"/>
<path d="M6180 306 c0 -169 1 -175 22 -190 14 -10 44 -16 75 -16 l53 0 0 45
c0 43 -1 45 -30 45 l-30 0 0 65 0 65 30 0 c28 0 30 2 30 40 0 38 -2 40 -30 40
-28 0 -30 2 -30 40 l0 40 -45 0 -45 0 0 -174z"/>
<path d="M6386 458 c-24 -33 -20 -38 28 -38 37 0 45 4 50 23 9 35 8 37 -28 37
-25 0 -39 -7 -50 -22z"/>
<path d="M5124 386 c-16 -12 -19 -29 -22 -125 -4 -107 -3 -111 22 -136 23 -23
32 -25 113 -25 131 0 133 2 133 149 0 151 0 151 -131 151 -66 0 -101 -4 -115
-14z m161 -136 l0 -55 -45 0 -45 0 -3 58 -3 58 48 -3 48 -3 0 -55z"/>
<path d="M5430 380 c-17 -17 -20 -33 -20 -110 0 -83 2 -93 25 -115 21 -22 33
-25 90 -25 63 0 66 -1 63 -23 -3 -20 -9 -22 -80 -25 l-78 -3 0 -34 0 -35 109
0 c86 0 113 3 125 16 13 13 16 45 16 195 l0 179 -115 0 c-102 0 -117 -2 -135
-20z m160 -121 l0 -50 -42 3 -43 3 -3 48 -3 47 45 0 46 0 0 -51z"/>
<path d="M5730 250 l0 -150 40 0 40 0 0 150 0 150 -40 0 -40 0 0 -150z"/>
<path d="M5887 382 c-21 -23 -24 -136 -4 -149 6 -4 46 -10 87 -13 43 -3 74 -9
73 -15 -2 -5 -41 -11 -88 -13 l-85 -3 0 -44 0 -45 103 0 c56 0 112 3 124 6 38
10 55 94 30 144 -11 23 -20 25 -92 30 -62 4 -80 8 -80 20 0 12 18 16 88 18
l87 3 0 39 0 40 -113 0 c-98 0 -116 -3 -130 -18z"/>
<path d="M6370 250 l0 -150 40 0 40 0 0 150 0 150 -40 0 -40 0 0 -150z"/>
<path d="M6517 382 c-14 -15 -17 -41 -17 -135 0 -145 4 -149 131 -145 l84 3 3
43 3 42 -65 0 c-61 0 -66 2 -72 24 -3 13 -4 38 -2 57 l3 34 68 3 67 3 0 44 0
45 -93 0 c-78 0 -97 -3 -110 -18z"/>
<path d="M6760 360 l0 -39 82 -3 c70 -3 83 -6 86 -20 3 -16 -6 -18 -75 -18
-48 0 -84 -5 -91 -12 -7 -7 -12 -39 -12 -74 0 -84 14 -94 131 -94 121 0 133
10 137 119 2 45 1 97 -2 116 -11 59 -25 65 -147 65 l-109 0 0 -40z m165 -155
c0 -15 -8 -21 -33 -23 -18 -2 -40 2 -48 9 -23 19 3 41 45 37 28 -2 36 -7 36
-23z"/>
</g>
</svg>
